<?xml version="1.0" encoding="UTF-8" standalone="no"?>
<!DOCTYPE svg PUBLIC "-//W3C//DTD SVG 1.1//EN" "http://www.w3.org/Graphics/SVG/1.1/DTD/svg11.dtd">
<svg width="100%" height="100%" viewBox="0 0 1213 363" version="1.1" xmlns="http://www.w3.org/2000/svg" xmlns:xlink="http://www.w3.org/1999/xlink" xml:space="preserve" xmlns:serif="http://www.serif.com/" style="fill-rule:evenodd;clip-rule:evenodd;stroke-linejoin:round;stroke-miterlimit:2;">
    <g id="full-logo" serif:id="full logo" transform="matrix(2.425773,0,0,0.724945,0,0)">
        <rect x="0" y="0" width="500" height="500" style="fill:none;"/>
        <g transform="matrix(0.131616,0,0,0.440405,-82.746279,-234.445492)">
            <path d="M1154.61,1198.5C1224.86,1255.11 1295.11,1311.72 1365.37,1368.33L1364.02,1373.22L820.32,1373.22L817.657,1368.48C883.306,1311.66 948.956,1254.83 1019,1194.21L656.019,1194.21C655.393,1187.67 654.495,1182.66 654.492,1177.64C654.425,1052.11 654.539,926.568 654.294,801.031C654.274,790.978 656.683,785.501 666.607,780.342C807.317,707.201 947.608,633.253 1088.28,560.04C1093.87,557.129 1103.56,557.032 1109.14,559.902C1250.71,632.692 1392.05,705.936 1533.09,779.745C1538.86,782.767 1544.83,792.034 1544.87,798.429C1545.68,925.909 1545.64,1053.39 1545.71,1180.88C1545.71,1184.62 1544.98,1188.37 1544.49,1193.03L1157.78,1193.03C1156.72,1194.85 1155.67,1196.68 1154.61,1198.5ZM1337.65,869.377L1334.01,868.554L1216.44,1044.56L1220.9,1048.15C1252.51,1019.34 1284.17,990.575 1315.71,961.691C1323.21,954.823 1335.7,948.201 1336.64,940.356C1339.45,916.992 1337.65,893.077 1337.65,869.377ZM1166.95,1011.31C1205.64,990.135 1216.51,980.035 1203.86,953.366C1192.06,971.881 1180.76,989.629 1166.95,1011.31ZM1407.59,1017.91C1396.47,993.115 1385.35,968.314 1374.22,943.515C1367.77,967.401 1382.53,1000.93 1407.59,1017.91ZM1077.16,1199.13L1077.16,1238.52L1100.97,1238.52C1093.95,1224.17 1107.65,1202.58 1077.16,1199.13ZM1098.87,1278.55C1089.48,1279.01 1081.62,1279.4 1072.77,1279.83L1072.77,1320.65L1098.87,1320.65L1098.87,1278.55ZM933.684,976.438L923.453,1033.19C922.095,1033.13 920.737,1033.08 919.379,1033.03L904.063,963.004C882.733,1009.19 877.772,1053.23 889.417,1099.04C892.033,1109.33 896.382,1115.51 909.254,1115.3C959.981,1114.47 1010.73,1114.69 1061.47,1115.13C1072.59,1115.23 1079.04,1111.43 1084.49,1101.59C1098.03,1077.15 1112.6,1053.27 1127.23,1029.46C1154.4,985.231 1181.91,941.212 1210.1,895.769L1254.27,935.914C1282.8,892.264 1310.53,849.856 1340.89,803.411C1389.86,882.018 1436.45,956.781 1483.03,1031.54C1487.22,964.747 1487.55,899.759 1486.62,834.789C1486.54,829.272 1479.12,821.805 1473.27,818.731C1363.38,760.955 1252.67,704.694 1143.42,645.736C1111.49,628.505 1086.8,627 1053.42,645.639C947.342,704.868 838.764,759.636 730.853,815.554C716.952,822.757 711.763,831.468 711.93,847.298C712.81,930.555 712.472,1013.82 712.647,1097.09C712.659,1102.66 713.423,1108.23 713.819,1113.56L839.519,1113.56C841.496,1085.88 841.043,1059.06 845.917,1033.25C850.837,1007.19 861.038,982.127 868.994,956.405L821.481,989.767L817.484,986.016L852.64,929.338L787.26,966.528L784.074,962.635L813.904,916.834L753.997,926.861L750.789,922.24C767.802,910.094 783.635,895.592 802.096,886.334C832.282,871.198 863.665,875.576 895.567,892.139L893.905,857.862L908.702,878.083L939.49,841.421L944.608,844.471L937.075,906.18L975.567,916.365L960.787,922.502C1007.14,967.346 1013.6,978.505 1014.56,1017.3C1001.31,1002.96 989.116,989.768 974.268,973.706L974.268,1037.2C972.729,1037.51 971.189,1037.81 969.65,1038.12L933.684,976.438ZM662.538,1228L944.07,1228C922.912,1242.76 907.615,1256.2 882.877,1255.21C834.884,1253.29 786.76,1254.65 738.626,1254.65C739.867,1282.22 741.235,1283.44 765.4,1283.3C794.983,1283.13 824.567,1283.26 854.774,1285.57C828.795,1303.53 808.462,1331.93 770.111,1323.71C769.113,1325.32 768.114,1326.93 767.116,1328.55C780.024,1348.03 793.168,1367.37 805.776,1387.05C818.824,1407.41 835.918,1413.81 860.898,1413.38C974.037,1411.48 1087.22,1412.22 1200.39,1412.08C1205.42,1412.07 1210.45,1412.76 1215.7,1413.14L1215.7,1450.18L861.306,1450.18C873.18,1461.41 880.322,1469.22 888.494,1475.73C949.206,1524.08 1016.72,1559.33 1091.73,1579.77C1096.41,1581.04 1102.03,1581.39 1106.63,1580.1C1235.53,1543.87 1338.94,1472.14 1412.79,1359.49C1416.7,1353.52 1420.11,1347.21 1423.52,1340.94C1425.65,1337.02 1427.36,1332.86 1431.51,1324.01C1385.08,1328.76 1344.55,1321.61 1315.32,1283.41C1353.56,1283.41 1391.63,1283.72 1429.69,1283.3C1458.03,1282.99 1453.12,1287 1461.78,1256.17C1454.8,1255.73 1448.1,1254.96 1441.39,1254.94C1391.96,1254.81 1342.44,1252.98 1293.14,1255.53C1265.54,1256.96 1246.94,1244.68 1226.46,1227.7L1535.18,1227.7C1521.46,1284.39 1499.43,1335.67 1469.55,1383.87C1394.73,1504.53 1286.48,1581.44 1155.06,1630.73C1116.25,1645.28 1083.51,1646.58 1044.05,1631.19C918.762,1582.34 813.515,1509.2 737.625,1396.95C703.16,1345.97 678.329,1290.44 662.538,1228ZM1013.24,1517.83L1013.24,1484.85L1167.3,1484.85L1167.3,1517.83L1013.24,1517.83Z" style="fill:rgb(30,64,175);"/>
        </g>
        <g transform="matrix(1.690227,0,0,5.655747,-681.184398,-980.724891)">
            <path d="M491.489,233.523L491.489,208.123L490.989,204.123L498.589,204.123L509.889,224.123L521.589,204.123L528.339,204.123L528.339,233.523L521.739,233.523L521.739,214.873L521.189,214.873L519.239,219.223L512.939,230.523L506.889,230.523L500.589,219.223L498.589,214.873L498.089,214.873L498.089,233.523L491.489,233.523ZM532.339,233.523L546.989,204.123L556.839,204.123L571.439,233.523L563.739,233.523L560.789,227.173L542.889,227.173L539.639,233.523L532.339,233.523ZM544.689,222.273L558.939,222.273L552.089,208.623L551.589,208.623L544.689,222.273ZM575.939,233.523L575.939,208.123L575.439,204.123L582.639,204.123L599.639,221.923L601.589,224.623L602.139,224.623L602.139,204.123L608.739,204.123L608.739,233.523L602.389,233.523L584.989,215.423L583.039,213.073L582.539,213.073L582.539,233.523L575.939,233.523ZM626.789,233.523L626.739,208.873L613.739,208.873L613.739,204.073L646.439,204.073L646.439,208.873L633.389,208.873L633.389,233.523L626.789,233.523ZM651.439,233.523L651.439,204.123L658.039,204.123L658.039,233.523L651.439,233.523ZM671.639,233.523C669.372,233.523 667.705,233.423 666.639,233.223C665.572,233.023 665.039,232.79 665.039,232.523L667.039,228.173C667.805,228.306 669.714,228.431 672.764,228.548C675.814,228.665 680.005,228.723 685.339,228.723L686.289,228.723C687.722,228.723 688.739,228.465 689.339,227.948C689.939,227.431 690.239,226.556 690.239,225.323L690.239,224.323C690.239,223.156 689.997,222.323 689.514,221.823C689.03,221.323 687.955,221.073 686.289,221.073L674.689,221.073C671.322,221.073 668.872,220.448 667.339,219.198C665.805,217.948 665.039,215.906 665.039,213.073L665.039,212.273C665.039,210.806 665.314,209.456 665.864,208.223C666.414,206.99 667.355,205.998 668.689,205.248C670.022,204.498 671.855,204.123 674.189,204.123L687.789,204.123C690.055,204.123 691.889,204.24 693.289,204.473C694.689,204.706 695.389,204.956 695.389,205.223L694.389,209.423C693.522,209.323 691.555,209.215 688.489,209.098C685.422,208.981 681.305,208.923 676.139,208.923L675.589,208.873C674.055,208.873 673.022,209.181 672.489,209.798C671.955,210.415 671.672,211.19 671.639,212.123L671.639,212.973C671.639,214.073 671.947,214.898 672.564,215.448C673.18,215.998 674.205,216.273 675.639,216.273L686.739,216.273C688.872,216.273 690.689,216.49 692.189,216.923C693.689,217.356 694.839,218.148 695.639,219.298C696.439,220.448 696.839,222.14 696.839,224.373L696.839,225.173C696.839,227.673 696.197,229.69 694.914,231.223C693.63,232.756 691.405,233.523 688.239,233.523L671.639,233.523Z" style="fill:rgb(41,37,36);"/>
        </g>
    </g>
</svg>
